<?xml version="1.0" encoding="UTF-8" standalone="no"?>
<!DOCTYPE svg PUBLIC "-//W3C//DTD SVG 1.1//EN"
 "http://www.w3.org/Graphics/SVG/1.1/DTD/svg11.dtd">
<!-- Generated by graphviz version 12.1.2 (20240928.0832)
 -->
<!-- Title: G Pages: 1 -->
<svg width="1376pt" height="189pt"
 viewBox="0.00 0.00 1376.00 188.85" xmlns="http://www.w3.org/2000/svg" xmlns:xlink="http://www.w3.org/1999/xlink">
<g id="graph0" class="graph" transform="scale(1 1) rotate(0) translate(4 184.85)">
<title>G</title>
<polygon fill="white" stroke="none" points="-4,4 -4,-184.85 1372,-184.85 1372,4 -4,4"/>
<!-- github.com/enuesaa/cpbuf -->
<g id="node1" class="node">
<title>github.com/enuesaa/cpbuf</title>
<g id="a_node1"><a xlink:href="https://pkg.go.dev/github.com/enuesaa/cpbuf" xlink:title="github.com/enuesaa/cpbuf\l45 / 1.7KB\l" target="_graphviz">
<polygon fill="none" stroke="#400791" stroke-width="2" stroke-opacity="0.698039" points="144,-60.22 0,-60.22 0,-24.22 144,-24.22 144,-60.22"/>
<text text-anchor="start" x="8" y="-43.97" font-family="Times,serif" font-size="10.00">github.com/enuesaa/cpbuf</text>
<text text-anchor="start" x="8" y="-32.72" font-family="Times,serif" font-size="10.00">45 / 1.7KB</text>
</a>
</g>
</g>
<!-- github.com/enuesaa/cpbuf/pkg/cli -->
<g id="node2" class="node">
<title>github.com/enuesaa/cpbuf/pkg/cli</title>
<g id="a_node2"><a xlink:href="https://pkg.go.dev/github.com/enuesaa/cpbuf/pkg/cli" xlink:title="github.com/enuesaa/cpbuf/pkg/cli\l163 / 4.8KB\l" target="_graphviz">
<polygon fill="none" stroke="#860791" stroke-width="2" stroke-opacity="0.698039" points="432,-106.22 252,-106.22 252,-70.22 432,-70.22 432,-106.22"/>
<text text-anchor="start" x="260" y="-89.97" font-family="Times,serif" font-size="10.00">github.com/enuesaa/cpbuf/pkg/cli</text>
<text text-anchor="start" x="260" y="-78.72" font-family="Times,serif" font-size="10.00">163 / 4.8KB</text>
</a>
</g>
</g>
<!-- github.com/enuesaa/cpbuf&#45;&gt;github.com/enuesaa/cpbuf/pkg/cli -->
<g id="edge1" class="edge">
<title>github.com/enuesaa/cpbuf:e&#45;&gt;github.com/enuesaa/cpbuf/pkg/cli</title>
<path fill="none" stroke="#860791" stroke-width="2" stroke-opacity="0.698039" d="M144,-42.22C189.32,-42.22 239,-53.91 277.14,-65.5"/>
<polygon fill="#860791" fill-opacity="0.698039" stroke="#860791" stroke-width="2" stroke-opacity="0.698039" points="275.61,-68.69 286.2,-68.34 277.71,-62.01 275.61,-68.69"/>
</g>
<!-- github.com/enuesaa/cpbuf/pkg/repository -->
<g id="node4" class="node">
<title>github.com/enuesaa/cpbuf/pkg/repository</title>
<g id="a_node4"><a xlink:href="https://pkg.go.dev/github.com/enuesaa/cpbuf/pkg/repository" xlink:title="github.com/enuesaa/cpbuf/pkg/repository\l232 / 6.0KB\l" target="_graphviz">
<polygon fill="none" stroke="#911007" stroke-width="2" stroke-opacity="0.698039" points="1368,-83.22 1152,-83.22 1152,-47.22 1368,-47.22 1368,-83.22"/>
<text text-anchor="start" x="1160" y="-66.97" font-family="Times,serif" font-size="10.00">github.com/enuesaa/cpbuf/pkg/repository</text>
<text text-anchor="start" x="1160" y="-55.72" font-family="Times,serif" font-size="10.00">232 / 6.0KB</text>
</a>
</g>
</g>
<!-- github.com/enuesaa/cpbuf&#45;&gt;github.com/enuesaa/cpbuf/pkg/repository -->
<g id="edge2" class="edge">
<title>github.com/enuesaa/cpbuf:e&#45;&gt;github.com/enuesaa/cpbuf/pkg/repository</title>
<path fill="none" stroke="#911007" stroke-width="2" stroke-opacity="0.698039" d="M144,-42.22C544.18,-42.22 646.43,30.4 1044,-15.22 1090.48,-20.56 1141.52,-32.17 1182.21,-42.87"/>
<polygon fill="#911007" fill-opacity="0.698039" stroke="#911007" stroke-width="2" stroke-opacity="0.698039" points="1181.27,-46.24 1191.83,-45.44 1183.08,-39.48 1181.27,-46.24"/>
</g>
<!-- github.com/enuesaa/cpbuf/pkg/cli&#45;&gt;github.com/enuesaa/cpbuf/pkg/repository -->
<g id="edge3" class="edge">
<title>github.com/enuesaa/cpbuf/pkg/cli:e&#45;&gt;github.com/enuesaa/cpbuf/pkg/repository</title>
<path fill="none" stroke="#911007" stroke-width="2" stroke-opacity="0.698039" d="M432,-88.22C481.48,-88.22 491.53,-105.31 540,-115.22 760.37,-160.28 824.01,-208.11 1044,-161.22 1107.4,-147.71 1174.76,-114.1 1216.84,-90.48"/>
<polygon fill="#911007" fill-opacity="0.698039" stroke="#911007" stroke-width="2" stroke-opacity="0.698039" points="1218.44,-93.6 1225.39,-85.6 1214.97,-87.52 1218.44,-93.6"/>
</g>
<!-- github.com/enuesaa/cpbuf/pkg/usecase -->
<g id="node6" class="node">
<title>github.com/enuesaa/cpbuf/pkg/usecase</title>
<g id="a_node6"><a xlink:href="https://pkg.go.dev/github.com/enuesaa/cpbuf/pkg/usecase" xlink:title="github.com/enuesaa/cpbuf/pkg/usecase\l140 / 3.8KB\l" target="_graphviz">
<polygon fill="none" stroke="#914407" stroke-width="2" stroke-opacity="0.698039" points="720,-106.22 540,-106.22 540,-70.22 720,-70.22 720,-106.22"/>
<text text-anchor="start" x="548" y="-89.97" font-family="Times,serif" font-size="10.00">github.com/enuesaa/cpbuf/pkg/usecase</text>
<text text-anchor="start" x="548" y="-78.72" font-family="Times,serif" font-size="10.00">140 / 3.8KB</text>
</a>
</g>
</g>
<!-- github.com/enuesaa/cpbuf/pkg/cli&#45;&gt;github.com/enuesaa/cpbuf/pkg/usecase -->
<g id="edge4" class="edge">
<title>github.com/enuesaa/cpbuf/pkg/cli:e&#45;&gt;github.com/enuesaa/cpbuf/pkg/usecase</title>
<path fill="none" stroke="#914407" stroke-width="2" stroke-opacity="0.698039" d="M432,-88.22C462.67,-88.22 496.04,-88.22 526.44,-88.22"/>
<polygon fill="#914407" fill-opacity="0.698039" stroke="#914407" stroke-width="2" stroke-opacity="0.698039" points="526.24,-91.72 536.24,-88.22 526.24,-84.72 526.24,-91.72"/>
</g>
<!-- github.com/enuesaa/cpbuf/pkg/filematch -->
<g id="node3" class="node">
<title>github.com/enuesaa/cpbuf/pkg/filematch</title>
<g id="a_node3"><a xlink:href="https://pkg.go.dev/github.com/enuesaa/cpbuf/pkg/filematch" xlink:title="github.com/enuesaa/cpbuf/pkg/filematch\l76 / 1.5KB\l" target="_graphviz">
<polygon fill="none" stroke="#071691" stroke-width="2" stroke-opacity="0.698039" points="1044,-152.22 828,-152.22 828,-116.22 1044,-116.22 1044,-152.22"/>
<text text-anchor="start" x="836" y="-135.97" font-family="Times,serif" font-size="10.00">github.com/enuesaa/cpbuf/pkg/filematch</text>
<text text-anchor="start" x="836" y="-124.72" font-family="Times,serif" font-size="10.00">76 / 1.5KB</text>
</a>
</g>
</g>
<!-- github.com/enuesaa/cpbuf/pkg/task -->
<g id="node5" class="node">
<title>github.com/enuesaa/cpbuf/pkg/task</title>
<g id="a_node5"><a xlink:href="https://pkg.go.dev/github.com/enuesaa/cpbuf/pkg/task" xlink:title="github.com/enuesaa/cpbuf/pkg/task\l283 / 6.6KB\l" target="_graphviz">
<polygon fill="none" stroke="#910728" stroke-width="2" stroke-opacity="0.698039" points="1026,-60.22 846,-60.22 846,-24.22 1026,-24.22 1026,-60.22"/>
<text text-anchor="start" x="854" y="-43.97" font-family="Times,serif" font-size="10.00">github.com/enuesaa/cpbuf/pkg/task</text>
<text text-anchor="start" x="854" y="-32.72" font-family="Times,serif" font-size="10.00">283 / 6.6KB</text>
</a>
</g>
</g>
<!-- github.com/enuesaa/cpbuf/pkg/task&#45;&gt;github.com/enuesaa/cpbuf/pkg/repository -->
<g id="edge5" class="edge">
<title>github.com/enuesaa/cpbuf/pkg/task:e&#45;&gt;github.com/enuesaa/cpbuf/pkg/repository</title>
<path fill="none" stroke="#911007" stroke-width="2" stroke-opacity="0.698039" d="M1027,-42.22C1063.39,-42.22 1102.83,-45.06 1138.69,-48.74"/>
<polygon fill="#911007" fill-opacity="0.698039" stroke="#911007" stroke-width="2" stroke-opacity="0.698039" points="1137.89,-52.18 1148.21,-49.75 1138.63,-45.21 1137.89,-52.18"/>
</g>
<!-- github.com/enuesaa/cpbuf/pkg/usecase&#45;&gt;github.com/enuesaa/cpbuf/pkg/filematch -->
<g id="edge6" class="edge">
<title>github.com/enuesaa/cpbuf/pkg/usecase:e&#45;&gt;github.com/enuesaa/cpbuf/pkg/filematch</title>
<path fill="none" stroke="#071691" stroke-width="2" stroke-opacity="0.698039" d="M720,-88.22C745.11,-88.22 801.18,-100.37 849.77,-112.18"/>
<polygon fill="#071691" fill-opacity="0.698039" stroke="#071691" stroke-width="2" stroke-opacity="0.698039" points="848.78,-115.54 859.32,-114.53 850.45,-108.74 848.78,-115.54"/>
</g>
<!-- github.com/enuesaa/cpbuf/pkg/usecase&#45;&gt;github.com/enuesaa/cpbuf/pkg/repository -->
<g id="edge7" class="edge">
<title>github.com/enuesaa/cpbuf/pkg/usecase:e&#45;&gt;github.com/enuesaa/cpbuf/pkg/repository</title>
<path fill="none" stroke="#911007" stroke-width="2" stroke-opacity="0.698039" d="M720,-88.22C863.93,-88.22 1029.27,-79.94 1138.47,-73.31"/>
<polygon fill="#911007" fill-opacity="0.698039" stroke="#911007" stroke-width="2" stroke-opacity="0.698039" points="1138.38,-76.82 1148.15,-72.72 1137.95,-69.84 1138.38,-76.82"/>
</g>
<!-- github.com/enuesaa/cpbuf/pkg/usecase&#45;&gt;github.com/enuesaa/cpbuf/pkg/task -->
<g id="edge8" class="edge">
<title>github.com/enuesaa/cpbuf/pkg/usecase:e&#45;&gt;github.com/enuesaa/cpbuf/pkg/task</title>
<path fill="none" stroke="#910728" stroke-width="2" stroke-opacity="0.698039" d="M720,-88.22C745.11,-88.22 801.18,-76.08 849.77,-64.27"/>
<polygon fill="#910728" fill-opacity="0.698039" stroke="#910728" stroke-width="2" stroke-opacity="0.698039" points="850.45,-67.71 859.32,-61.92 848.78,-60.91 850.45,-67.71"/>
</g>
</g>
</svg>
