<?xml version="1.0" encoding="UTF-8" standalone="no"?>
<!DOCTYPE svg PUBLIC "-//W3C//DTD SVG 1.1//EN"
 "http://www.w3.org/Graphics/SVG/1.1/DTD/svg11.dtd">
<!-- Generated by graphviz version 12.1.2 (20240928.0832)
 -->
<!-- Title: G Pages: 1 -->
<svg width="1880pt" height="585pt"
 viewBox="0.00 0.00 1880.00 585.36" xmlns="http://www.w3.org/2000/svg" xmlns:xlink="http://www.w3.org/1999/xlink">
<g id="graph0" class="graph" transform="scale(1 1) rotate(0) translate(4 581.36)">
<title>G</title>
<polygon fill="white" stroke="none" points="-4,4 -4,-581.36 1876,-581.36 1876,4 -4,4"/>
<!-- github.com/enuesaa/teatime -->
<g id="node1" class="node">
<title>github.com/enuesaa/teatime</title>
<g id="a_node1"><a xlink:href="https://pkg.go.dev/github.com/enuesaa/teatime" xlink:title="github.com/enuesaa/teatime\l17 / 379B\l" target="_graphviz">
<polygon fill="none" stroke="#110791" stroke-width="2" stroke-opacity="0.698039" points="144,-457.36 0,-457.36 0,-421.36 144,-421.36 144,-457.36"/>
<text text-anchor="start" x="8" y="-441.11" font-family="Times,serif" font-size="10.00">github.com/enuesaa/teatime</text>
<text text-anchor="start" x="8" y="-429.86" font-family="Times,serif" font-size="10.00">17 / 379B</text>
</a>
</g>
</g>
<!-- github.com/enuesaa/teatime/pkg/repository -->
<g id="node3" class="node">
<title>github.com/enuesaa/teatime/pkg/repository</title>
<g id="a_node3"><a xlink:href="https://pkg.go.dev/github.com/enuesaa/teatime/pkg/repository" xlink:title="github.com/enuesaa/teatime/pkg/repository\l183 / 4.7KB\l" target="_graphviz">
<polygon fill="none" stroke="#073e91" stroke-width="2" stroke-opacity="0.698039" points="1872,-427.36 1656,-427.36 1656,-391.36 1872,-391.36 1872,-427.36"/>
<text text-anchor="start" x="1664" y="-411.11" font-family="Times,serif" font-size="10.00">github.com/enuesaa/teatime/pkg/repository</text>
<text text-anchor="start" x="1664" y="-399.86" font-family="Times,serif" font-size="10.00">183 / 4.7KB</text>
</a>
</g>
</g>
<!-- github.com/enuesaa/teatime&#45;&gt;github.com/enuesaa/teatime/pkg/repository -->
<g id="edge1" class="edge">
<title>github.com/enuesaa/teatime:e&#45;&gt;github.com/enuesaa/teatime/pkg/repository</title>
<path fill="none" stroke="#073e91" stroke-width="2" stroke-opacity="0.698039" d="M144,-439.36C391.28,-439.36 435.72,-577.36 683,-577.36 683,-577.36 683,-577.36 1063,-577.36 1280.54,-577.36 1339.49,-573.39 1548,-511.36 1610.44,-492.79 1677.52,-458.4 1719.85,-434.73"/>
<polygon fill="#073e91" fill-opacity="0.698039" stroke="#073e91" stroke-width="2" stroke-opacity="0.698039" points="1721.49,-437.82 1728.47,-429.85 1718.04,-431.73 1721.49,-437.82"/>
</g>
<!-- github.com/enuesaa/teatime/pkg/router -->
<g id="node4" class="node">
<title>github.com/enuesaa/teatime/pkg/router</title>
<g id="a_node4"><a xlink:href="https://pkg.go.dev/github.com/enuesaa/teatime/pkg/router" xlink:title="github.com/enuesaa/teatime/pkg/router\l48 / 1.8KB\l" target="_graphviz">
<polygon fill="none" stroke="#076e91" stroke-width="2" stroke-opacity="0.698039" points="432,-342.36 252,-342.36 252,-306.36 432,-306.36 432,-342.36"/>
<text text-anchor="start" x="260" y="-326.11" font-family="Times,serif" font-size="10.00">github.com/enuesaa/teatime/pkg/router</text>
<text text-anchor="start" x="260" y="-314.86" font-family="Times,serif" font-size="10.00">48 / 1.8KB</text>
</a>
</g>
</g>
<!-- github.com/enuesaa/teatime&#45;&gt;github.com/enuesaa/teatime/pkg/router -->
<g id="edge2" class="edge">
<title>github.com/enuesaa/teatime:e&#45;&gt;github.com/enuesaa/teatime/pkg/router</title>
<path fill="none" stroke="#076e91" stroke-width="2" stroke-opacity="0.698039" d="M144,-439.36C212.78,-439.36 278.9,-386.44 314.32,-352.4"/>
<polygon fill="#076e91" fill-opacity="0.698039" stroke="#076e91" stroke-width="2" stroke-opacity="0.698039" points="316.67,-355 321.32,-345.48 311.75,-350.02 316.67,-355"/>
</g>
<!-- github.com/enuesaa/teatime/pkg/plug -->
<g id="node2" class="node">
<title>github.com/enuesaa/teatime/pkg/plug</title>
<g id="a_node2"><a xlink:href="https://pkg.go.dev/github.com/enuesaa/teatime/pkg/plug" xlink:title="github.com/enuesaa/teatime/pkg/plug\l182 / 3.8KB\l" target="_graphviz">
<polygon fill="none" stroke="#379107" stroke-width="2" stroke-opacity="0.698039" points="1854,-200.36 1674,-200.36 1674,-164.36 1854,-164.36 1854,-200.36"/>
<text text-anchor="start" x="1682" y="-184.11" font-family="Times,serif" font-size="10.00">github.com/enuesaa/teatime/pkg/plug</text>
<text text-anchor="start" x="1682" y="-172.86" font-family="Times,serif" font-size="10.00">182 / 3.8KB</text>
</a>
</g>
</g>
<!-- github.com/enuesaa/teatime/pkg/router&#45;&gt;github.com/enuesaa/teatime/pkg/repository -->
<g id="edge3" class="edge">
<title>github.com/enuesaa/teatime/pkg/router:e&#45;&gt;github.com/enuesaa/teatime/pkg/repository</title>
<path fill="none" stroke="#073e91" stroke-width="2" stroke-opacity="0.698039" d="M432,-324.36C531.46,-324.36 454.37,-469.78 540,-520.36 567.51,-536.61 1149.93,-511.11 1188,-509.36 1348.13,-502.03 1391.04,-519.92 1548,-487.36 1605.09,-475.52 1667.43,-451.6 1710.21,-433.35"/>
<polygon fill="#073e91" fill-opacity="0.698039" stroke="#073e91" stroke-width="2" stroke-opacity="0.698039" points="1711.44,-436.63 1719.23,-429.45 1708.66,-430.21 1711.44,-436.63"/>
</g>
<!-- github.com/enuesaa/teatime/pkg/router/middleware -->
<g id="node7" class="node">
<title>github.com/enuesaa/teatime/pkg/router/middleware</title>
<g id="a_node7"><a xlink:href="https://pkg.go.dev/github.com/enuesaa/teatime/pkg/router/middleware" xlink:title="github.com/enuesaa/teatime/pkg/router/middleware\l80 / 1.7KB\l" target="_graphviz">
<polygon fill="none" stroke="#91071e" stroke-width="2" stroke-opacity="0.698039" points="1188,-473.36 936,-473.36 936,-437.36 1188,-437.36 1188,-473.36"/>
<text text-anchor="start" x="944" y="-457.11" font-family="Times,serif" font-size="10.00">github.com/enuesaa/teatime/pkg/router/middleware</text>
<text text-anchor="start" x="944" y="-445.86" font-family="Times,serif" font-size="10.00">80 / 1.7KB</text>
</a>
</g>
</g>
<!-- github.com/enuesaa/teatime/pkg/router&#45;&gt;github.com/enuesaa/teatime/pkg/router/middleware -->
<g id="edge4" class="edge">
<title>github.com/enuesaa/teatime/pkg/router:e&#45;&gt;github.com/enuesaa/teatime/pkg/router/middleware</title>
<path fill="none" stroke="#91071e" stroke-width="2" stroke-opacity="0.698039" d="M432,-324.36C484.89,-324.36 489.2,-359.63 540,-374.36 664,-410.34 700.48,-392.2 828,-412.36 868.52,-418.77 912.82,-426.71 951.81,-434.02"/>
<polygon fill="#91071e" fill-opacity="0.698039" stroke="#91071e" stroke-width="2" stroke-opacity="0.698039" points="951.1,-437.45 961.57,-435.86 952.4,-430.57 951.1,-437.45"/>
</g>
<!-- github.com/enuesaa/teatime/pkg/routes/log/deleteall -->
<g id="node8" class="node">
<title>github.com/enuesaa/teatime/pkg/routes/log/deleteall</title>
<g id="a_node8"><a xlink:href="https://pkg.go.dev/github.com/enuesaa/teatime/pkg/routes/log/deleteall" xlink:title="github.com/enuesaa/teatime/pkg/routes/log/deleteall\l26 / 546B\l" target="_graphviz">
<polygon fill="none" stroke="#074591" stroke-width="2" stroke-opacity="0.698039" points="1188,-181.36 936,-181.36 936,-145.36 1188,-145.36 1188,-181.36"/>
<text text-anchor="start" x="944" y="-165.11" font-family="Times,serif" font-size="10.00">github.com/enuesaa/teatime/pkg/routes/log/deleteall</text>
<text text-anchor="start" x="944" y="-153.86" font-family="Times,serif" font-size="10.00">26 / 546B</text>
</a>
</g>
</g>
<!-- github.com/enuesaa/teatime/pkg/router&#45;&gt;github.com/enuesaa/teatime/pkg/routes/log/deleteall -->
<g id="edge5" class="edge">
<title>github.com/enuesaa/teatime/pkg/router:e&#45;&gt;github.com/enuesaa/teatime/pkg/routes/log/deleteall</title>
<path fill="none" stroke="#074591" stroke-width="2" stroke-opacity="0.698039" d="M432,-324.36C488.49,-324.36 487.27,-277.63 540,-257.36 664.39,-209.57 814.99,-185.76 922.21,-174.1"/>
<polygon fill="#074591" fill-opacity="0.698039" stroke="#074591" stroke-width="2" stroke-opacity="0.698039" points="922.49,-177.59 932.06,-173.05 921.75,-170.63 922.49,-177.59"/>
</g>
<!-- github.com/enuesaa/teatime/pkg/routes/logs -->
<g id="node9" class="node">
<title>github.com/enuesaa/teatime/pkg/routes/logs</title>
<g id="a_node9"><a xlink:href="https://pkg.go.dev/github.com/enuesaa/teatime/pkg/routes/logs" xlink:title="github.com/enuesaa/teatime/pkg/routes/logs\l27 / 546B\l" target="_graphviz">
<polygon fill="none" stroke="#650791" stroke-width="2" stroke-opacity="0.698039" points="1170,-127.36 954,-127.36 954,-91.36 1170,-91.36 1170,-127.36"/>
<text text-anchor="start" x="962" y="-111.11" font-family="Times,serif" font-size="10.00">github.com/enuesaa/teatime/pkg/routes/logs</text>
<text text-anchor="start" x="962" y="-99.86" font-family="Times,serif" font-size="10.00">27 / 546B</text>
</a>
</g>
</g>
<!-- github.com/enuesaa/teatime/pkg/router&#45;&gt;github.com/enuesaa/teatime/pkg/routes/logs -->
<g id="edge6" class="edge">
<title>github.com/enuesaa/teatime/pkg/router:e&#45;&gt;github.com/enuesaa/teatime/pkg/routes/logs</title>
<path fill="none" stroke="#650791" stroke-width="2" stroke-opacity="0.698039" d="M432,-324.36C510.94,-324.36 471.86,-223.21 540,-183.36 662.71,-111.61 828.71,-99.74 940.05,-101.47"/>
<polygon fill="#650791" fill-opacity="0.698039" stroke="#650791" stroke-width="2" stroke-opacity="0.698039" points="939.92,-104.97 949.99,-101.68 940.06,-97.97 939.92,-104.97"/>
</g>
<!-- github.com/enuesaa/teatime/pkg/routes/teapods -->
<g id="node10" class="node">
<title>github.com/enuesaa/teatime/pkg/routes/teapods</title>
<g id="a_node10"><a xlink:href="https://pkg.go.dev/github.com/enuesaa/teatime/pkg/routes/teapods" xlink:title="github.com/enuesaa/teatime/pkg/routes/teapods\l70 / 1.5KB\l" target="_graphviz">
<polygon fill="none" stroke="#079149" stroke-width="2" stroke-opacity="0.698039" points="1170,-327.36 954,-327.36 954,-291.36 1170,-291.36 1170,-327.36"/>
<text text-anchor="start" x="962" y="-311.11" font-family="Times,serif" font-size="10.00">github.com/enuesaa/teatime/pkg/routes/teapods</text>
<text text-anchor="start" x="962" y="-299.86" font-family="Times,serif" font-size="10.00">70 / 1.5KB</text>
</a>
</g>
</g>
<!-- github.com/enuesaa/teatime/pkg/router&#45;&gt;github.com/enuesaa/teatime/pkg/routes/teapods -->
<g id="edge7" class="edge">
<title>github.com/enuesaa/teatime/pkg/router:e&#45;&gt;github.com/enuesaa/teatime/pkg/routes/teapods</title>
<path fill="none" stroke="#079149" stroke-width="2" stroke-opacity="0.698039" d="M432,-324.36C480.03,-324.36 491.99,-321.76 540,-320.36 677.16,-316.38 834.68,-313.25 940.28,-311.37"/>
<polygon fill="#079149" fill-opacity="0.698039" stroke="#079149" stroke-width="2" stroke-opacity="0.698039" points="940.26,-314.87 950.2,-311.19 940.14,-307.87 940.26,-314.87"/>
</g>
<!-- github.com/enuesaa/teatime/pkg/routes/teapods/info -->
<g id="node11" class="node">
<title>github.com/enuesaa/teatime/pkg/routes/teapods/info</title>
<g id="a_node11"><a xlink:href="https://pkg.go.dev/github.com/enuesaa/teatime/pkg/routes/teapods/info" xlink:title="github.com/enuesaa/teatime/pkg/routes/teapods/info\l38 / 0.9KB\l" target="_graphviz">
<polygon fill="none" stroke="#429107" stroke-width="2" stroke-opacity="0.698039" points="1188,-235.36 936,-235.36 936,-199.36 1188,-199.36 1188,-235.36"/>
<text text-anchor="start" x="944" y="-219.11" font-family="Times,serif" font-size="10.00">github.com/enuesaa/teatime/pkg/routes/teapods/info</text>
<text text-anchor="start" x="944" y="-207.86" font-family="Times,serif" font-size="10.00">38 / 0.9KB</text>
</a>
</g>
</g>
<!-- github.com/enuesaa/teatime/pkg/router&#45;&gt;github.com/enuesaa/teatime/pkg/routes/teapods/info -->
<g id="edge8" class="edge">
<title>github.com/enuesaa/teatime/pkg/router:e&#45;&gt;github.com/enuesaa/teatime/pkg/routes/teapods/info</title>
<path fill="none" stroke="#429107" stroke-width="2" stroke-opacity="0.698039" d="M432,-324.36C457.32,-324.36 767.5,-269.75 942.6,-238.56"/>
<polygon fill="#429107" fill-opacity="0.698039" stroke="#429107" stroke-width="2" stroke-opacity="0.698039" points="943.02,-242.04 952.25,-236.84 941.79,-235.15 943.02,-242.04"/>
</g>
<!-- github.com/enuesaa/teatime/pkg/routes/teapods/teaboxes/teas -->
<g id="node12" class="node">
<title>github.com/enuesaa/teatime/pkg/routes/teapods/teaboxes/teas</title>
<g id="a_node12"><a xlink:href="https://pkg.go.dev/github.com/enuesaa/teatime/pkg/routes/teapods/teaboxes/teas" xlink:title="github.com/enuesaa/teatime/pkg/routes/teapods/teaboxes/teas\l98 / 2.2KB\l" target="_graphviz">
<polygon fill="none" stroke="#91076e" stroke-width="2" stroke-opacity="0.698039" points="828,-365.36 540,-365.36 540,-329.36 828,-329.36 828,-365.36"/>
<text text-anchor="start" x="548" y="-349.11" font-family="Times,serif" font-size="10.00">github.com/enuesaa/teatime/pkg/routes/teapods/teaboxes/teas</text>
<text text-anchor="start" x="548" y="-337.86" font-family="Times,serif" font-size="10.00">98 / 2.2KB</text>
</a>
</g>
</g>
<!-- github.com/enuesaa/teatime/pkg/router&#45;&gt;github.com/enuesaa/teatime/pkg/routes/teapods/teaboxes/teas -->
<g id="edge9" class="edge">
<title>github.com/enuesaa/teatime/pkg/router:e&#45;&gt;github.com/enuesaa/teatime/pkg/routes/teapods/teaboxes/teas</title>
<path fill="none" stroke="#91076e" stroke-width="2" stroke-opacity="0.698039" d="M432,-324.36C462.58,-324.36 495.16,-326.08 526.38,-328.57"/>
<polygon fill="#91076e" fill-opacity="0.698039" stroke="#91076e" stroke-width="2" stroke-opacity="0.698039" points="525.92,-332.04 536.18,-329.39 526.5,-325.07 525.92,-332.04"/>
</g>
<!-- github.com/enuesaa/teatime/pkg/srvlog -->
<g id="node13" class="node">
<title>github.com/enuesaa/teatime/pkg/srvlog</title>
<g id="a_node13"><a xlink:href="https://pkg.go.dev/github.com/enuesaa/teatime/pkg/srvlog" xlink:title="github.com/enuesaa/teatime/pkg/srvlog\l60 / 1.4KB\l" target="_graphviz">
<polygon fill="none" stroke="#490791" stroke-width="2" stroke-opacity="0.698039" points="1512,-200.36 1332,-200.36 1332,-164.36 1512,-164.36 1512,-200.36"/>
<text text-anchor="start" x="1340" y="-184.11" font-family="Times,serif" font-size="10.00">github.com/enuesaa/teatime/pkg/srvlog</text>
<text text-anchor="start" x="1340" y="-172.86" font-family="Times,serif" font-size="10.00">60 / 1.4KB</text>
</a>
</g>
</g>
<!-- github.com/enuesaa/teatime/pkg/router&#45;&gt;github.com/enuesaa/teatime/pkg/srvlog -->
<g id="edge10" class="edge">
<title>github.com/enuesaa/teatime/pkg/router:e&#45;&gt;github.com/enuesaa/teatime/pkg/srvlog</title>
<path fill="none" stroke="#490791" stroke-width="2" stroke-opacity="0.698039" d="M432,-324.36C542.12,-324.36 448.12,-162.07 540,-101.36 780.39,57.46 912.51,2.01 1188,-82.36 1243.4,-99.33 1242.72,-132.61 1296,-155.36 1303.3,-158.48 1311,-161.26 1318.85,-163.72"/>
<polygon fill="#490791" fill-opacity="0.698039" stroke="#490791" stroke-width="2" stroke-opacity="0.698039" points="1317.78,-167.06 1328.36,-166.5 1319.74,-160.34 1317.78,-167.06"/>
</g>
<!-- github.com/enuesaa/teatime/ui -->
<g id="node18" class="node">
<title>github.com/enuesaa/teatime/ui</title>
<g id="a_node18"><a xlink:href="https://pkg.go.dev/github.com/enuesaa/teatime/ui" xlink:title="github.com/enuesaa/teatime/ui\l27 / 573B\l" target="_graphviz">
<polygon fill="none" stroke="#229107" stroke-width="2" stroke-opacity="0.698039" points="756,-457.36 612,-457.36 612,-421.36 756,-421.36 756,-457.36"/>
<text text-anchor="start" x="620" y="-441.11" font-family="Times,serif" font-size="10.00">github.com/enuesaa/teatime/ui</text>
<text text-anchor="start" x="620" y="-429.86" font-family="Times,serif" font-size="10.00">27 / 573B</text>
</a>
</g>
</g>
<!-- github.com/enuesaa/teatime/pkg/router&#45;&gt;github.com/enuesaa/teatime/ui -->
<g id="edge11" class="edge">
<title>github.com/enuesaa/teatime/pkg/router:e&#45;&gt;github.com/enuesaa/teatime/ui</title>
<path fill="none" stroke="#229107" stroke-width="2" stroke-opacity="0.698039" d="M432,-324.36C492.54,-324.36 485.17,-381.71 540,-407.36 558.23,-415.9 578.85,-422.21 598.65,-426.87"/>
<polygon fill="#229107" fill-opacity="0.698039" stroke="#229107" stroke-width="2" stroke-opacity="0.698039" points="597.69,-430.24 608.21,-428.97 599.2,-423.4 597.69,-430.24"/>
</g>
<!-- github.com/enuesaa/teatime/pkg/router/apptest -->
<g id="node5" class="node">
<title>github.com/enuesaa/teatime/pkg/router/apptest</title>
<g id="a_node5"><a xlink:href="https://pkg.go.dev/github.com/enuesaa/teatime/pkg/router/apptest" xlink:title="github.com/enuesaa/teatime/pkg/router/apptest\l125 / 3.1KB\l" target="_graphviz">
<polygon fill="none" stroke="#07912b" stroke-width="2" stroke-opacity="0.698039" points="792,-511.36 576,-511.36 576,-475.36 792,-475.36 792,-511.36"/>
<text text-anchor="start" x="584" y="-495.11" font-family="Times,serif" font-size="10.00">github.com/enuesaa/teatime/pkg/router/apptest</text>
<text text-anchor="start" x="584" y="-483.86" font-family="Times,serif" font-size="10.00">125 / 3.1KB</text>
</a>
</g>
</g>
<!-- github.com/enuesaa/teatime/pkg/router/apptest&#45;&gt;github.com/enuesaa/teatime/pkg/repository -->
<g id="edge12" class="edge">
<title>github.com/enuesaa/teatime/pkg/router/apptest:e&#45;&gt;github.com/enuesaa/teatime/pkg/repository</title>
<path fill="none" stroke="#073e91" stroke-width="2" stroke-opacity="0.698039" d="M793,-493.36C1128.9,-493.36 1215.69,-508.28 1548,-459.36 1592.91,-452.75 1642.3,-441.55 1682.4,-431.43"/>
<polygon fill="#073e91" fill-opacity="0.698039" stroke="#073e91" stroke-width="2" stroke-opacity="0.698039" points="1683.05,-434.88 1691.87,-429.01 1681.32,-428.09 1683.05,-434.88"/>
</g>
<!-- github.com/enuesaa/teatime/pkg/router/apptest&#45;&gt;github.com/enuesaa/teatime/pkg/router/middleware -->
<g id="edge13" class="edge">
<title>github.com/enuesaa/teatime/pkg/router/apptest:e&#45;&gt;github.com/enuesaa/teatime/pkg/router/middleware</title>
<path fill="none" stroke="#91071e" stroke-width="2" stroke-opacity="0.698039" d="M793,-493.36C848.33,-493.36 909.46,-485.33 959.35,-476.64"/>
<polygon fill="#91071e" fill-opacity="0.698039" stroke="#91071e" stroke-width="2" stroke-opacity="0.698039" points="959.9,-480.1 969.13,-474.9 958.67,-473.21 959.9,-480.1"/>
</g>
<!-- github.com/enuesaa/teatime/pkg/router/ctx -->
<g id="node6" class="node">
<title>github.com/enuesaa/teatime/pkg/router/ctx</title>
<g id="a_node6"><a xlink:href="https://pkg.go.dev/github.com/enuesaa/teatime/pkg/router/ctx" xlink:title="github.com/enuesaa/teatime/pkg/router/ctx\l25 / 521B\l" target="_graphviz">
<polygon fill="none" stroke="#7c9107" stroke-width="2" stroke-opacity="0.698039" points="1530,-277.36 1314,-277.36 1314,-241.36 1530,-241.36 1530,-277.36"/>
<text text-anchor="start" x="1322" y="-261.11" font-family="Times,serif" font-size="10.00">github.com/enuesaa/teatime/pkg/router/ctx</text>
<text text-anchor="start" x="1322" y="-249.86" font-family="Times,serif" font-size="10.00">25 / 521B</text>
</a>
</g>
</g>
<!-- github.com/enuesaa/teatime/pkg/router/ctx&#45;&gt;github.com/enuesaa/teatime/pkg/repository -->
<g id="edge14" class="edge">
<title>github.com/enuesaa/teatime/pkg/router/ctx:e&#45;&gt;github.com/enuesaa/teatime/pkg/repository</title>
<path fill="none" stroke="#073e91" stroke-width="2" stroke-opacity="0.698039" d="M1531,-259.36C1619.36,-259.36 1700.7,-337.05 1739.36,-380.61"/>
<polygon fill="#073e91" fill-opacity="0.698039" stroke="#073e91" stroke-width="2" stroke-opacity="0.698039" points="1736.64,-382.81 1745.83,-388.08 1741.93,-378.23 1736.64,-382.81"/>
</g>
<!-- github.com/enuesaa/teatime/pkg/router/middleware&#45;&gt;github.com/enuesaa/teatime/pkg/repository -->
<g id="edge15" class="edge">
<title>github.com/enuesaa/teatime/pkg/router/middleware:e&#45;&gt;github.com/enuesaa/teatime/pkg/repository</title>
<path fill="none" stroke="#073e91" stroke-width="2" stroke-opacity="0.698039" d="M1188,-455.36C1348.22,-455.36 1388.41,-450.58 1548,-436.36 1578.71,-433.63 1611.79,-429.88 1642.58,-426.04"/>
<polygon fill="#073e91" fill-opacity="0.698039" stroke="#073e91" stroke-width="2" stroke-opacity="0.698039" points="1642.68,-429.56 1652.16,-424.83 1641.8,-422.61 1642.68,-429.56"/>
</g>
<!-- github.com/enuesaa/teatime/pkg/router/middleware&#45;&gt;github.com/enuesaa/teatime/pkg/router/ctx -->
<g id="edge16" class="edge">
<title>github.com/enuesaa/teatime/pkg/router/middleware:e&#45;&gt;github.com/enuesaa/teatime/pkg/router/ctx</title>
<path fill="none" stroke="#7c9107" stroke-width="2" stroke-opacity="0.698039" d="M1188,-455.36C1277.14,-455.36 1222.81,-337.24 1296,-286.36 1297.93,-285.02 1299.92,-283.74 1301.95,-282.53"/>
<polygon fill="#7c9107" fill-opacity="0.698039" stroke="#7c9107" stroke-width="2" stroke-opacity="0.698039" points="1303.33,-285.76 1310.55,-278 1300.07,-279.56 1303.33,-285.76"/>
</g>
<!-- github.com/enuesaa/teatime/pkg/routes/log/deleteall&#45;&gt;github.com/enuesaa/teatime/pkg/router/ctx -->
<g id="edge17" class="edge">
<title>github.com/enuesaa/teatime/pkg/routes/log/deleteall:e&#45;&gt;github.com/enuesaa/teatime/pkg/router/ctx</title>
<path fill="none" stroke="#7c9107" stroke-width="2" stroke-opacity="0.698039" d="M1188,-163.36C1240.17,-163.36 1247.78,-189.45 1296,-209.36 1317.13,-218.09 1340.36,-227.45 1361,-235.68"/>
<polygon fill="#7c9107" fill-opacity="0.698039" stroke="#7c9107" stroke-width="2" stroke-opacity="0.698039" points="1359.42,-238.82 1370.01,-239.26 1362.01,-232.31 1359.42,-238.82"/>
</g>
<!-- github.com/enuesaa/teatime/pkg/routes/log/deleteall&#45;&gt;github.com/enuesaa/teatime/pkg/srvlog -->
<g id="edge18" class="edge">
<title>github.com/enuesaa/teatime/pkg/routes/log/deleteall:e&#45;&gt;github.com/enuesaa/teatime/pkg/srvlog</title>
<path fill="none" stroke="#490791" stroke-width="2" stroke-opacity="0.698039" d="M1188,-163.36C1230.76,-163.36 1277.78,-166.58 1318.32,-170.37"/>
<polygon fill="#490791" fill-opacity="0.698039" stroke="#490791" stroke-width="2" stroke-opacity="0.698039" points="1317.94,-173.85 1328.23,-171.33 1318.61,-166.88 1317.94,-173.85"/>
</g>
<!-- github.com/enuesaa/teatime/pkg/routes/logs&#45;&gt;github.com/enuesaa/teatime/pkg/router/ctx -->
<g id="edge19" class="edge">
<title>github.com/enuesaa/teatime/pkg/routes/logs:e&#45;&gt;github.com/enuesaa/teatime/pkg/router/ctx</title>
<path fill="none" stroke="#7c9107" stroke-width="2" stroke-opacity="0.698039" d="M1171,-109.36C1242.15,-109.36 1234.53,-173.54 1296,-209.36 1313.31,-219.45 1333.04,-228.39 1351.64,-235.82"/>
<polygon fill="#7c9107" fill-opacity="0.698039" stroke="#7c9107" stroke-width="2" stroke-opacity="0.698039" points="1350.24,-239.03 1360.83,-239.38 1352.77,-232.5 1350.24,-239.03"/>
</g>
<!-- github.com/enuesaa/teatime/pkg/routes/logs&#45;&gt;github.com/enuesaa/teatime/pkg/srvlog -->
<g id="edge20" class="edge">
<title>github.com/enuesaa/teatime/pkg/routes/logs:e&#45;&gt;github.com/enuesaa/teatime/pkg/srvlog</title>
<path fill="none" stroke="#490791" stroke-width="2" stroke-opacity="0.698039" d="M1171,-109.36C1230.2,-109.36 1239.15,-138.85 1296,-155.36 1303.33,-157.49 1310.94,-159.54 1318.63,-161.48"/>
<polygon fill="#490791" fill-opacity="0.698039" stroke="#490791" stroke-width="2" stroke-opacity="0.698039" points="1317.69,-164.85 1328.23,-163.83 1319.35,-158.05 1317.69,-164.85"/>
</g>
<!-- github.com/enuesaa/teatime/pkg/routes/teapods&#45;&gt;github.com/enuesaa/teatime/pkg/router/ctx -->
<g id="edge21" class="edge">
<title>github.com/enuesaa/teatime/pkg/routes/teapods:e&#45;&gt;github.com/enuesaa/teatime/pkg/router/ctx</title>
<path fill="none" stroke="#7c9107" stroke-width="2" stroke-opacity="0.698039" d="M1171,-309.36C1178.73,-309.36 1252.52,-294.47 1317.94,-280.93"/>
<polygon fill="#7c9107" fill-opacity="0.698039" stroke="#7c9107" stroke-width="2" stroke-opacity="0.698039" points="1318.42,-284.41 1327.5,-278.95 1317,-277.55 1318.42,-284.41"/>
</g>
<!-- github.com/enuesaa/teatime/pkg/srvteapod -->
<g id="node15" class="node">
<title>github.com/enuesaa/teatime/pkg/srvteapod</title>
<g id="a_node15"><a xlink:href="https://pkg.go.dev/github.com/enuesaa/teatime/pkg/srvteapod" xlink:title="github.com/enuesaa/teatime/pkg/srvteapod\l152 / 3.6KB\l" target="_graphviz">
<polygon fill="none" stroke="#079124" stroke-width="2" stroke-opacity="0.698039" points="1530,-331.36 1314,-331.36 1314,-295.36 1530,-295.36 1530,-331.36"/>
<text text-anchor="start" x="1322" y="-315.11" font-family="Times,serif" font-size="10.00">github.com/enuesaa/teatime/pkg/srvteapod</text>
<text text-anchor="start" x="1322" y="-303.86" font-family="Times,serif" font-size="10.00">152 / 3.6KB</text>
</a>
</g>
</g>
<!-- github.com/enuesaa/teatime/pkg/routes/teapods&#45;&gt;github.com/enuesaa/teatime/pkg/srvteapod -->
<g id="edge22" class="edge">
<title>github.com/enuesaa/teatime/pkg/routes/teapods:e&#45;&gt;github.com/enuesaa/teatime/pkg/srvteapod</title>
<path fill="none" stroke="#079124" stroke-width="2" stroke-opacity="0.698039" d="M1171,-309.36C1213.1,-309.36 1259.18,-309.94 1300.19,-310.65"/>
<polygon fill="#079124" fill-opacity="0.698039" stroke="#079124" stroke-width="2" stroke-opacity="0.698039" points="1299.94,-314.15 1310,-310.83 1300.06,-307.15 1299.94,-314.15"/>
</g>
<!-- github.com/enuesaa/teatime/pkg/routes/teapods/info&#45;&gt;github.com/enuesaa/teatime/pkg/router/ctx -->
<g id="edge23" class="edge">
<title>github.com/enuesaa/teatime/pkg/routes/teapods/info:e&#45;&gt;github.com/enuesaa/teatime/pkg/router/ctx</title>
<path fill="none" stroke="#7c9107" stroke-width="2" stroke-opacity="0.698039" d="M1188,-217.36C1239.08,-217.36 1295.48,-227.26 1339.99,-237.45"/>
<polygon fill="#7c9107" fill-opacity="0.698039" stroke="#7c9107" stroke-width="2" stroke-opacity="0.698039" points="1339.03,-240.82 1349.56,-239.7 1340.63,-234 1339.03,-240.82"/>
</g>
<!-- github.com/enuesaa/teatime/pkg/routes/teapods/info&#45;&gt;github.com/enuesaa/teatime/pkg/srvteapod -->
<g id="edge24" class="edge">
<title>github.com/enuesaa/teatime/pkg/routes/teapods/info:e&#45;&gt;github.com/enuesaa/teatime/pkg/srvteapod</title>
<path fill="none" stroke="#079124" stroke-width="2" stroke-opacity="0.698039" d="M1188,-217.36C1244.96,-217.36 1243.33,-264.68 1296,-286.36 1299.42,-287.77 1302.92,-289.11 1306.48,-290.38"/>
<polygon fill="#079124" fill-opacity="0.698039" stroke="#079124" stroke-width="2" stroke-opacity="0.698039" points="1305.3,-293.68 1315.89,-293.51 1307.5,-287.03 1305.3,-293.68"/>
</g>
<!-- github.com/enuesaa/teatime/pkg/routes/teapods/teaboxes/teas&#45;&gt;github.com/enuesaa/teatime/pkg/router/ctx -->
<g id="edge25" class="edge">
<title>github.com/enuesaa/teatime/pkg/routes/teapods/teaboxes/teas:e&#45;&gt;github.com/enuesaa/teatime/pkg/router/ctx</title>
<path fill="none" stroke="#7c9107" stroke-width="2" stroke-opacity="0.698039" d="M828,-347.36C884.02,-347.36 882.39,-298.63 936,-282.36 1056.17,-245.91 1200.71,-244.09 1300.57,-248.95"/>
<polygon fill="#7c9107" fill-opacity="0.698039" stroke="#7c9107" stroke-width="2" stroke-opacity="0.698039" points="1300.25,-252.43 1310.42,-249.46 1300.62,-245.44 1300.25,-252.43"/>
</g>
<!-- github.com/enuesaa/teatime/pkg/srvtea -->
<g id="node14" class="node">
<title>github.com/enuesaa/teatime/pkg/srvtea</title>
<g id="a_node14"><a xlink:href="https://pkg.go.dev/github.com/enuesaa/teatime/pkg/srvtea" xlink:title="github.com/enuesaa/teatime/pkg/srvtea\l90 / 2.0KB\l" target="_graphviz">
<polygon fill="none" stroke="#07918f" stroke-width="2" stroke-opacity="0.698039" points="1512,-427.36 1332,-427.36 1332,-391.36 1512,-391.36 1512,-427.36"/>
<text text-anchor="start" x="1340" y="-411.11" font-family="Times,serif" font-size="10.00">github.com/enuesaa/teatime/pkg/srvtea</text>
<text text-anchor="start" x="1340" y="-399.86" font-family="Times,serif" font-size="10.00">90 / 2.0KB</text>
</a>
</g>
</g>
<!-- github.com/enuesaa/teatime/pkg/routes/teapods/teaboxes/teas&#45;&gt;github.com/enuesaa/teatime/pkg/srvtea -->
<g id="edge26" class="edge">
<title>github.com/enuesaa/teatime/pkg/routes/teapods/teaboxes/teas:e&#45;&gt;github.com/enuesaa/teatime/pkg/srvtea</title>
<path fill="none" stroke="#07918f" stroke-width="2" stroke-opacity="0.698039" d="M828,-347.36C879.66,-347.36 885.46,-379.64 936,-390.36 1065.77,-417.89 1219.35,-418.75 1318.38,-415.33"/>
<polygon fill="#07918f" fill-opacity="0.698039" stroke="#07918f" stroke-width="2" stroke-opacity="0.698039" points="1318.5,-418.83 1328.36,-414.96 1318.23,-411.83 1318.5,-418.83"/>
</g>
<!-- github.com/enuesaa/teatime/pkg/usecase -->
<g id="node16" class="node">
<title>github.com/enuesaa/teatime/pkg/usecase</title>
<g id="a_node16"><a xlink:href="https://pkg.go.dev/github.com/enuesaa/teatime/pkg/usecase" xlink:title="github.com/enuesaa/teatime/pkg/usecase\l22 / 0.7KB\l" target="_graphviz">
<polygon fill="none" stroke="#8a9107" stroke-width="2" stroke-opacity="0.698039" points="1170,-381.36 954,-381.36 954,-345.36 1170,-345.36 1170,-381.36"/>
<text text-anchor="start" x="962" y="-365.11" font-family="Times,serif" font-size="10.00">github.com/enuesaa/teatime/pkg/usecase</text>
<text text-anchor="start" x="962" y="-353.86" font-family="Times,serif" font-size="10.00">22 / 0.7KB</text>
</a>
</g>
</g>
<!-- github.com/enuesaa/teatime/pkg/routes/teapods/teaboxes/teas&#45;&gt;github.com/enuesaa/teatime/pkg/usecase -->
<g id="edge27" class="edge">
<title>github.com/enuesaa/teatime/pkg/routes/teapods/teaboxes/teas:e&#45;&gt;github.com/enuesaa/teatime/pkg/usecase</title>
<path fill="none" stroke="#8a9107" stroke-width="2" stroke-opacity="0.698039" d="M828,-347.36C864.63,-347.36 904.43,-349.36 940.59,-351.94"/>
<polygon fill="#8a9107" fill-opacity="0.698039" stroke="#8a9107" stroke-width="2" stroke-opacity="0.698039" points="939.97,-355.4 950.2,-352.65 940.49,-348.42 939.97,-355.4"/>
</g>
<!-- github.com/enuesaa/teatime/pkg/srvlog&#45;&gt;github.com/enuesaa/teatime/pkg/plug -->
<g id="edge28" class="edge">
<title>github.com/enuesaa/teatime/pkg/srvlog:e&#45;&gt;github.com/enuesaa/teatime/pkg/plug</title>
<path fill="none" stroke="#379107" stroke-width="2" stroke-opacity="0.698039" d="M1513,-182.36C1561.4,-182.36 1615.06,-182.36 1660.23,-182.36"/>
<polygon fill="#379107" fill-opacity="0.698039" stroke="#379107" stroke-width="2" stroke-opacity="0.698039" points="1660.01,-185.87 1670.01,-182.36 1660.01,-178.87 1660.01,-185.87"/>
</g>
<!-- github.com/enuesaa/teatime/pkg/srvlog&#45;&gt;github.com/enuesaa/teatime/pkg/repository -->
<g id="edge29" class="edge">
<title>github.com/enuesaa/teatime/pkg/srvlog:e&#45;&gt;github.com/enuesaa/teatime/pkg/repository</title>
<path fill="none" stroke="#073e91" stroke-width="2" stroke-opacity="0.698039" d="M1513,-182.36C1628.69,-182.36 1714.58,-317.26 1747.86,-379.07"/>
<polygon fill="#073e91" fill-opacity="0.698039" stroke="#073e91" stroke-width="2" stroke-opacity="0.698039" points="1744.65,-380.5 1752.4,-387.72 1750.85,-377.24 1744.65,-380.5"/>
</g>
<!-- github.com/enuesaa/teatime/pkg/srvtea&#45;&gt;github.com/enuesaa/teatime/pkg/repository -->
<g id="edge30" class="edge">
<title>github.com/enuesaa/teatime/pkg/srvtea:e&#45;&gt;github.com/enuesaa/teatime/pkg/repository</title>
<path fill="none" stroke="#073e91" stroke-width="2" stroke-opacity="0.698039" d="M1513,-409.36C1555.09,-409.36 1601.18,-409.36 1642.18,-409.36"/>
<polygon fill="#073e91" fill-opacity="0.698039" stroke="#073e91" stroke-width="2" stroke-opacity="0.698039" points="1641.99,-412.87 1651.99,-409.36 1641.99,-405.87 1641.99,-412.87"/>
</g>
<!-- github.com/enuesaa/teatime/pkg/srvteapod&#45;&gt;github.com/enuesaa/teatime/pkg/plug -->
<g id="edge31" class="edge">
<title>github.com/enuesaa/teatime/pkg/srvteapod:e&#45;&gt;github.com/enuesaa/teatime/pkg/plug</title>
<path fill="none" stroke="#379107" stroke-width="2" stroke-opacity="0.698039" d="M1531,-313.36C1614.33,-313.36 1695.26,-248.5 1735.91,-210.05"/>
<polygon fill="#379107" fill-opacity="0.698039" stroke="#379107" stroke-width="2" stroke-opacity="0.698039" points="1738.2,-212.71 1742.95,-203.24 1733.33,-207.68 1738.2,-212.71"/>
</g>
<!-- github.com/enuesaa/teatime/pkg/srvteapod&#45;&gt;github.com/enuesaa/teatime/pkg/repository -->
<g id="edge32" class="edge">
<title>github.com/enuesaa/teatime/pkg/srvteapod:e&#45;&gt;github.com/enuesaa/teatime/pkg/repository</title>
<path fill="none" stroke="#073e91" stroke-width="2" stroke-opacity="0.698039" d="M1531,-313.36C1604.38,-313.36 1681.58,-354.88 1725.84,-383.31"/>
<polygon fill="#073e91" fill-opacity="0.698039" stroke="#073e91" stroke-width="2" stroke-opacity="0.698039" points="1723.82,-386.17 1734.09,-388.74 1727.66,-380.32 1723.82,-386.17"/>
</g>
<!-- github.com/enuesaa/teatime/pkg/usecase&#45;&gt;github.com/enuesaa/teatime/pkg/repository -->
<g id="edge33" class="edge">
<title>github.com/enuesaa/teatime/pkg/usecase:e&#45;&gt;github.com/enuesaa/teatime/pkg/repository</title>
<path fill="none" stroke="#073e91" stroke-width="2" stroke-opacity="0.698039" d="M1171,-363.36C1338.77,-363.36 1380.88,-367.68 1548,-382.36 1578.71,-385.06 1611.8,-388.8 1642.59,-392.64"/>
<polygon fill="#073e91" fill-opacity="0.698039" stroke="#073e91" stroke-width="2" stroke-opacity="0.698039" points="1641.81,-396.07 1652.17,-393.85 1642.68,-389.12 1641.81,-396.07"/>
</g>
<!-- github.com/enuesaa/teatime/pkg/usecase&#45;&gt;github.com/enuesaa/teatime/pkg/srvlog -->
<g id="edge34" class="edge">
<title>github.com/enuesaa/teatime/pkg/usecase:e&#45;&gt;github.com/enuesaa/teatime/pkg/srvlog</title>
<path fill="none" stroke="#490791" stroke-width="2" stroke-opacity="0.698039" d="M1171,-363.36C1251.48,-363.36 1229.34,-277.45 1296,-232.36 1311.42,-221.94 1329.34,-213.16 1346.71,-206.02"/>
<polygon fill="#490791" fill-opacity="0.698039" stroke="#490791" stroke-width="2" stroke-opacity="0.698039" points="1347.77,-209.36 1355.8,-202.44 1345.21,-202.84 1347.77,-209.36"/>
</g>
<!-- github.com/enuesaa/teatime/pkg/usecase&#45;&gt;github.com/enuesaa/teatime/pkg/srvtea -->
<g id="edge35" class="edge">
<title>github.com/enuesaa/teatime/pkg/usecase:e&#45;&gt;github.com/enuesaa/teatime/pkg/srvtea</title>
<path fill="none" stroke="#07918f" stroke-width="2" stroke-opacity="0.698039" d="M1171,-363.36C1200.34,-363.36 1266.62,-375.77 1323.57,-387.7"/>
<polygon fill="#07918f" fill-opacity="0.698039" stroke="#07918f" stroke-width="2" stroke-opacity="0.698039" points="1322.85,-391.12 1333.35,-389.76 1324.29,-384.27 1322.85,-391.12"/>
</g>
<!-- github.com/enuesaa/teatime/pkg/usecase&#45;&gt;github.com/enuesaa/teatime/pkg/srvteapod -->
<g id="edge36" class="edge">
<title>github.com/enuesaa/teatime/pkg/usecase:e&#45;&gt;github.com/enuesaa/teatime/pkg/srvteapod</title>
<path fill="none" stroke="#079124" stroke-width="2" stroke-opacity="0.698039" d="M1171,-363.36C1231.57,-363.36 1298.81,-349.08 1348.3,-335.78"/>
<polygon fill="#079124" fill-opacity="0.698039" stroke="#079124" stroke-width="2" stroke-opacity="0.698039" points="1349.17,-339.17 1357.88,-333.14 1347.31,-332.42 1349.17,-339.17"/>
</g>
<!-- github.com/enuesaa/teatime/teapods/teapod&#45;links -->
<g id="node17" class="node">
<title>github.com/enuesaa/teatime/teapods/teapod&#45;links</title>
<g id="a_node17"><a xlink:href="https://pkg.go.dev/github.com/enuesaa/teatime/teapods/teapod-links" xlink:title="github.com/enuesaa/teatime/teapods/teapod&#45;links\l65 / 1.2KB\l" target="_graphviz">
<polygon fill="none" stroke="#910791" stroke-width="2" stroke-opacity="0.698039" points="1548,-146.36 1296,-146.36 1296,-110.36 1548,-110.36 1548,-146.36"/>
<text text-anchor="start" x="1304" y="-130.11" font-family="Times,serif" font-size="10.00">github.com/enuesaa/teatime/teapods/teapod&#45;links</text>
<text text-anchor="start" x="1304" y="-118.86" font-family="Times,serif" font-size="10.00">65 / 1.2KB</text>
</a>
</g>
</g>
<!-- github.com/enuesaa/teatime/teapods/teapod&#45;links&#45;&gt;github.com/enuesaa/teatime/pkg/plug -->
<g id="edge37" class="edge">
<title>github.com/enuesaa/teatime/teapods/teapod&#45;links:e&#45;&gt;github.com/enuesaa/teatime/pkg/plug</title>
<path fill="none" stroke="#379107" stroke-width="2" stroke-opacity="0.698039" d="M1548,-128.36C1601.94,-128.36 1661.27,-144.55 1703.91,-159.2"/>
<polygon fill="#379107" fill-opacity="0.698039" stroke="#379107" stroke-width="2" stroke-opacity="0.698039" points="1702.58,-162.44 1713.18,-162.47 1704.91,-155.84 1702.58,-162.44"/>
</g>
</g>
</svg>
