<svg version="1.1" xmlns="http://www.w3.org/2000/svg" viewBox="0 0 1075.37900625 447.12109375" width="1075.37900625" height="447.12109375">
  <!-- svg-source:excalidraw -->
  
  <defs>
    <style class="style-fonts">
      @font-face {
        font-family: "Virgil";
        src: url("https://excalidraw.com/Virgil.woff2");
      }
      @font-face {
        font-family: "Cascadia";
        src: url("https://excalidraw.com/Cascadia.woff2");
      }
      @font-face {
        font-family: "Assistant";
        src: url("https://excalidraw.com/Assistant-Regular.woff2");
      }
    </style>
    
  </defs>
  <rect x="0" y="0" width="1075.37900625" height="447.12109375" fill="#ffffff"></rect><g transform="translate(1065.37890625 42.953125) rotate(0 0.00004999999998744897 0.00005000000000165983)" stroke="none"><path fill="#1e1e1e" d="M 1.57,-1.57 Q 1.57,-1.57 1.77,-1.27 1.98,-0.98 2.09,-0.64 2.20,-0.29 2.19,0.05 2.18,0.41 2.05,0.75 1.93,1.09 1.70,1.37 1.48,1.65 1.18,1.84 0.87,2.04 0.52,2.12 0.18,2.21 -0.17,2.18 -0.53,2.15 -0.86,2.01 -1.19,1.87 -1.46,1.63 -1.73,1.39 -1.90,1.07 -2.08,0.76 -2.15,0.41 -2.21,0.05 -2.17,-0.29 -2.12,-0.65 -1.96,-0.97 -1.80,-1.29 -1.54,-1.54 -1.29,-1.80 -0.97,-1.96 -0.65,-2.12 -0.29,-2.17 0.06,-2.21 0.41,-2.15 0.76,-2.08 1.07,-1.90 1.39,-1.73 1.63,-1.46 1.87,-1.19 2.01,-0.86 2.15,-0.53 2.18,-0.17 2.21,0.18 2.12,0.52 2.03,0.87 1.84,1.18 1.65,1.48 1.37,1.70 1.09,1.93 0.75,2.05 0.41,2.18 0.05,2.19 -0.30,2.20 -0.64,2.09 -0.98,1.98 -1.27,1.77 -1.57,1.56 -1.57,1.57 -1.57,1.57 -1.73,1.35 -1.90,1.14 -2.01,0.90 -2.12,0.66 -2.16,0.39 -2.21,0.13 -2.20,-0.13 -2.18,-0.40 -2.10,-0.65 -2.02,-0.91 -1.88,-1.14 -1.74,-1.36 -1.55,-1.55 -1.36,-1.74 -1.14,-1.88 -0.91,-2.02 -0.65,-2.10 -0.40,-2.18 -0.13,-2.20 0.13,-2.21 0.39,-2.16 0.66,-2.12 0.90,-2.01 1.14,-1.90 1.35,-1.73 1.57,-1.57 1.57,-1.57 L 1.57,-1.57 Z"></path></g><g transform="translate(10 10) rotate(0 0.00005000000000165983 0.00005000000000165983)" stroke="none"><path fill="#1e1e1e" d="M 1.57,-1.57 Q 1.57,-1.57 1.77,-1.27 1.98,-0.98 2.09,-0.64 2.20,-0.29 2.19,0.05 2.18,0.41 2.05,0.75 1.93,1.09 1.70,1.37 1.48,1.65 1.18,1.84 0.87,2.04 0.52,2.12 0.18,2.21 -0.17,2.18 -0.53,2.15 -0.86,2.01 -1.19,1.87 -1.46,1.63 -1.73,1.39 -1.90,1.07 -2.08,0.76 -2.15,0.41 -2.21,0.05 -2.17,-0.29 -2.12,-0.65 -1.96,-0.97 -1.80,-1.29 -1.54,-1.54 -1.29,-1.80 -0.97,-1.96 -0.65,-2.12 -0.29,-2.17 0.06,-2.21 0.41,-2.15 0.76,-2.08 1.07,-1.90 1.39,-1.73 1.63,-1.46 1.87,-1.19 2.01,-0.86 2.15,-0.53 2.18,-0.17 2.21,0.18 2.12,0.52 2.03,0.87 1.84,1.18 1.65,1.48 1.37,1.70 1.09,1.93 0.75,2.05 0.41,2.18 0.05,2.19 -0.30,2.20 -0.64,2.09 -0.98,1.98 -1.27,1.77 -1.57,1.56 -1.57,1.57 -1.57,1.57 -1.73,1.35 -1.90,1.14 -2.01,0.90 -2.12,0.66 -2.16,0.39 -2.21,0.13 -2.20,-0.13 -2.18,-0.40 -2.10,-0.65 -2.02,-0.91 -1.88,-1.14 -1.74,-1.36 -1.55,-1.55 -1.36,-1.74 -1.14,-1.88 -0.91,-2.02 -0.65,-2.10 -0.40,-2.18 -0.13,-2.20 0.13,-2.21 0.39,-2.16 0.66,-2.12 0.90,-2.01 1.14,-1.90 1.35,-1.73 1.57,-1.57 1.57,-1.57 L 1.57,-1.57 Z"></path></g><g stroke-linecap="round" transform="translate(149.921875 100.2265625) rotate(0 48.34765625 45.04296875)"><path d="M22.52 0 C33.52 -1.25, 42.34 0.91, 74.17 0 M22.52 0 C36.79 -1.2, 52.21 0.01, 74.17 0 M74.17 0 C89.53 1.15, 97.87 6.23, 96.7 22.52 M74.17 0 C87.06 0.82, 95.36 8.7, 96.7 22.52 M96.7 22.52 C95.58 34.07, 98 44.71, 96.7 67.56 M96.7 22.52 C96.41 37.33, 96.01 52.97, 96.7 67.56 M96.7 67.56 C94.94 82.21, 88.74 90.33, 74.17 90.09 M96.7 67.56 C96.36 82.99, 91.21 89.04, 74.17 90.09 M74.17 90.09 C62.25 90.87, 52.73 88.76, 22.52 90.09 M74.17 90.09 C57.57 91.03, 41.44 90.85, 22.52 90.09 M22.52 90.09 C9.09 90.32, -0.45 81.09, 0 67.56 M22.52 90.09 C8.06 88, 2.23 84.31, 0 67.56 M0 67.56 C-0.78 58.7, -1.25 48.55, 0 22.52 M0 67.56 C-0.5 51.13, -0.1 34, 0 22.52 M0 22.52 C-1.05 5.76, 7.16 0.34, 22.52 0 M0 22.52 C0.6 7.32, 6.03 -2.21, 22.52 0" stroke="#1e1e1e" stroke-width="1" fill="none"></path></g><g transform="translate(104.7890625 203.1640625) rotate(0 87.51991271972656 12.5)"><text x="0" y="17.52" font-family="Virgil, Segoe UI Emoji" font-size="20px" fill="#1e1e1e" text-anchor="start" style="white-space: pre;" direction="ltr" dominant-baseline="alphabetic">GitHub Repository</text></g><g stroke-linecap="round"><g transform="translate(275.75390625 139.2578125) rotate(0 72.00390625 0.23828125)"><path d="M-0.04 0.65 C23.85 0.71, 119.11 0.23, 143.21 0.34 M-1.51 -0.05 C22.76 0.2, 121.24 1.89, 145.5 1.81" stroke="#1e1e1e" stroke-width="1" fill="none"></path></g><g transform="translate(275.75390625 139.2578125) rotate(0 72.00390625 0.23828125)"><path d="M121.94 10.16 C129.91 6.4, 135.49 6.21, 145.5 1.81 M121.94 10.16 C129.77 6.07, 140.27 3.88, 145.5 1.81" stroke="#1e1e1e" stroke-width="1" fill="none"></path></g><g transform="translate(275.75390625 139.2578125) rotate(0 72.00390625 0.23828125)"><path d="M122.08 -6.94 C130.01 -5.71, 135.54 -0.9, 145.5 1.81 M122.08 -6.94 C129.74 -4.71, 140.19 -0.57, 145.5 1.81" stroke="#1e1e1e" stroke-width="1" fill="none"></path></g></g><mask></mask><g transform="translate(312.29296875 144.1953125) rotate(0 37.52996063232422 12.5)"><text x="0" y="17.52" font-family="Virgil, Segoe UI Emoji" font-size="20px" fill="#1e1e1e" text-anchor="start" style="white-space: pre;" direction="ltr" dominant-baseline="alphabetic">webhook</text></g><g stroke-linecap="round" transform="translate(440.62109375 46.41796875) rotate(0 26.73046875 100.69140625)"><path d="M13.37 0 C22.51 -0.71, 31.75 -1.14, 40.1 0 M13.37 0 C19.42 0.71, 27.11 -0.32, 40.1 0 M40.1 0 C50.27 1.11, 53.85 5.47, 53.46 13.37 M40.1 0 C49.22 2.15, 55.31 2.81, 53.46 13.37 M53.46 13.37 C52.03 54.09, 53.86 92.5, 53.46 188.02 M53.46 13.37 C54.89 66.22, 54.8 118.12, 53.46 188.02 M53.46 188.02 C55.07 198.04, 47.57 202.24, 40.1 201.38 M53.46 188.02 C52.36 196.21, 50.01 200.84, 40.1 201.38 M40.1 201.38 C33.78 199.61, 27.9 200.93, 13.37 201.38 M40.1 201.38 C33.64 201.03, 26.11 201.99, 13.37 201.38 M13.37 201.38 C2.47 202.53, 1.61 195.56, 0 188.02 M13.37 201.38 C5.52 200.93, -1.56 199.18, 0 188.02 M0 188.02 C-1.42 137.38, 0.33 85.42, 0 13.37 M0 188.02 C-1.58 152.41, -0.81 115.62, 0 13.37 M0 13.37 C0.6 3.51, 5.77 -1.45, 13.37 0 M0 13.37 C0.77 5.44, 4.55 -0.08, 13.37 0" stroke="#1e1e1e" stroke-width="1" fill="none"></path></g><g transform="translate(374.87890625 264.6484375) rotate(0 86.9499282836914 12.5)"><text x="0" y="17.52" font-family="Virgil, Segoe UI Emoji" font-size="20px" fill="#1e1e1e" text-anchor="start" style="white-space: pre;" direction="ltr" dominant-baseline="alphabetic">CloudFlare Tunnel</text></g><g transform="translate(522.37890625 173.1015625) rotate(0 60.97265625 70.54296875)" stroke="none"><path fill="#1e1e1e" d="M 0.23,-2.62 Q 0.23,-2.62 1.43,-2.53 2.64,-2.44 3.72,-2.35 4.81,-2.26 6.83,-1.97 8.86,-1.68 10.96,-1.23 13.05,-0.79 15.01,-0.13 16.98,0.53 17.96,1.03 18.94,1.52 20.92,2.91 22.89,4.30 23.89,5.45 24.89,6.59 25.83,7.97 26.78,9.34 27.74,11.07 28.69,12.80 29.59,14.67 30.49,16.55 31.35,18.43 32.21,20.31 33.07,22.29 33.92,24.27 34.78,26.14 35.64,28.01 36.45,29.59 37.25,31.17 38.04,32.91 38.82,34.65 39.58,36.43 40.33,38.20 41.03,39.62 41.72,41.03 42.38,42.43 43.05,43.83 43.66,45.38 44.28,46.92 44.80,48.43 45.33,49.93 45.79,51.42 46.25,52.91 46.63,54.51 47.01,56.10 47.32,57.71 47.64,59.32 47.93,60.75 48.22,62.18 48.50,63.43 48.78,64.68 49.05,65.71 49.31,66.74 49.68,68.44 50.04,70.14 50.19,71.31 50.34,72.48 50.04,74.39 49.74,76.31 49.08,77.20 48.42,78.09 46.94,79.40 45.46,80.71 44.45,81.39 43.43,82.07 42.40,82.65 41.36,83.23 40.22,83.76 39.08,84.29 37.72,84.78 36.37,85.28 34.86,85.64 33.35,86.01 31.82,86.22 30.29,86.44 28.94,86.54 27.59,86.65 26.39,86.65 25.19,86.65 23.96,86.52 22.74,86.38 21.61,86.14 20.47,85.90 18.68,85.18 16.88,84.45 16.02,83.82 15.16,83.19 13.86,81.59 12.57,79.99 11.88,78.18 11.18,76.38 10.76,74.52 10.33,72.65 10.12,71.46 9.90,70.27 9.78,68.93 9.66,67.58 9.60,66.50 9.55,65.41 9.85,63.64 10.15,61.88 11.17,59.98 12.20,58.09 12.93,57.14 13.66,56.18 14.41,55.29 15.17,54.39 16.19,53.35 17.20,52.31 18.39,51.28 19.58,50.25 20.57,49.35 21.56,48.46 22.56,47.61 23.57,46.77 24.72,46.00 25.88,45.23 26.80,44.63 27.73,44.03 29.33,43.08 30.94,42.13 32.22,41.62 33.50,41.10 34.65,40.84 35.80,40.58 37.29,40.70 38.78,40.82 40.63,41.44 42.47,42.06 43.61,42.69 44.75,43.33 45.95,44.11 47.15,44.90 48.38,45.73 49.61,46.57 50.85,47.43 52.10,48.29 53.19,48.99 54.28,49.70 55.43,50.48 56.59,51.27 57.91,52.27 59.24,53.27 60.62,54.46 62.01,55.65 63.39,56.86 64.77,58.07 66.22,59.38 67.68,60.70 69.18,62.12 70.68,63.54 72.03,64.86 73.39,66.17 74.76,67.58 76.13,69.00 77.52,70.38 78.92,71.76 80.14,72.97 81.37,74.17 82.51,75.38 83.65,76.60 84.65,77.71 85.65,78.82 86.48,79.70 87.32,80.58 88.54,81.85 89.76,83.12 90.51,83.98 91.27,84.85 92.04,85.84 92.80,86.84 93.31,87.85 93.82,88.85 94.66,89.93 95.49,91.01 96.20,91.94 96.90,92.87 97.64,94.30 98.38,95.74 98.76,96.90 99.14,98.07 99.71,99.90 100.29,101.73 101.51,104.42 102.73,107.12 104.38,110.04 106.03,112.96 108.70,117.35 111.37,121.74 112.82,124.24 114.26,126.74 115.18,128.10 116.10,129.46 117.01,130.63 117.92,131.81 118.86,133.03 119.79,134.25 120.58,135.35 121.38,136.45 122.43,137.98 123.48,139.52 123.66,139.82 123.84,140.13 123.91,140.47 123.99,140.82 123.95,141.17 123.90,141.52 123.75,141.84 123.60,142.16 123.36,142.41 123.11,142.67 122.80,142.83 122.48,142.99 122.13,143.05 121.78,143.10 121.44,143.04 121.09,142.98 120.78,142.81 120.47,142.64 120.22,142.39 119.98,142.13 119.84,141.80 119.69,141.48 119.66,141.13 119.62,140.78 119.70,140.43 119.78,140.09 119.97,139.79 120.15,139.49 120.42,139.26 120.69,139.03 121.02,138.91 121.35,138.78 121.71,138.76 122.06,138.75 122.40,138.85 122.74,138.94 123.03,139.14 123.32,139.34 123.53,139.63 123.74,139.91 123.85,140.25 123.96,140.58 123.96,140.94 123.96,141.29 123.84,141.62 123.72,141.96 123.51,142.24 123.29,142.52 123.00,142.71 122.70,142.91 122.36,143.00 122.02,143.09 121.67,143.07 121.31,143.05 120.99,142.91 120.66,142.78 120.39,142.55 120.13,142.32 120.13,142.32 120.13,142.32 118.96,140.56 117.80,138.80 117.16,137.72 116.52,136.65 115.64,135.37 114.75,134.10 113.86,132.79 112.97,131.48 112.09,130.05 111.21,128.63 109.63,126.24 108.06,123.86 105.18,119.58 102.30,115.31 100.29,112.40 98.29,109.49 96.61,106.75 94.94,104.01 93.95,102.16 92.95,100.32 92.15,98.41 91.35,96.49 90.80,95.57 90.24,94.65 89.71,93.72 89.18,92.78 88.61,91.72 88.04,90.66 87.67,89.51 87.29,88.36 86.66,87.27 86.04,86.18 85.03,84.77 84.03,83.36 83.29,82.40 82.56,81.43 81.67,80.30 80.78,79.17 79.75,77.97 78.72,76.78 77.58,75.57 76.44,74.37 74.96,73.02 73.49,71.67 72.09,70.34 70.70,69.02 69.37,67.80 68.05,66.57 66.47,65.33 64.89,64.08 63.35,62.92 61.80,61.76 60.34,60.68 58.87,59.60 57.52,58.62 56.17,57.65 54.85,56.79 53.54,55.94 52.39,55.23 51.25,54.51 50.14,53.83 49.02,53.14 47.73,52.39 46.44,51.64 45.19,50.93 43.94,50.21 42.81,49.59 41.68,48.97 40.24,48.27 38.80,47.57 37.44,47.22 36.08,46.87 34.90,47.17 33.71,47.46 32.31,48.22 30.91,48.97 29.15,50.11 27.40,51.25 26.55,52.01 25.69,52.76 24.72,53.74 23.76,54.72 22.83,55.67 21.91,56.61 21.10,57.56 20.30,58.52 19.12,60.12 17.95,61.72 17.21,63.19 16.47,64.66 16.38,65.75 16.30,66.83 16.30,68.15 16.30,69.46 16.44,70.52 16.57,71.59 16.88,73.06 17.20,74.54 17.72,76.07 18.25,77.61 19.43,78.68 20.60,79.75 22.02,80.24 23.44,80.72 25.30,80.89 27.16,81.06 28.28,80.97 29.41,80.88 30.66,80.66 31.92,80.43 33.08,80.11 34.25,79.78 35.38,79.32 36.51,78.85 38.28,77.95 40.05,77.04 41.51,75.98 42.98,74.93 43.88,74.18 44.78,73.44 44.83,72.10 44.88,70.75 44.75,69.23 44.62,67.71 44.44,66.62 44.27,65.53 44.07,64.26 43.87,62.99 43.64,61.56 43.40,60.14 43.11,58.59 42.82,57.05 42.51,55.58 42.19,54.10 41.80,52.66 41.40,51.22 40.97,49.78 40.53,48.34 40.00,46.87 39.47,45.40 38.89,43.98 38.32,42.57 37.71,41.09 37.10,39.61 36.32,37.87 35.55,36.13 34.78,34.46 34.02,32.79 33.24,31.19 32.46,29.59 31.49,27.77 30.52,25.94 29.50,24.10 28.48,22.27 27.45,20.53 26.42,18.80 25.38,17.17 24.33,15.54 23.30,14.11 22.26,12.68 20.67,10.78 19.08,8.87 17.63,7.83 16.17,6.78 14.71,6.04 13.24,5.31 11.54,4.79 9.85,4.27 7.94,3.86 6.04,3.46 4.11,3.16 2.17,2.86 0.97,2.74 -0.23,2.62 -0.54,2.55 -0.85,2.49 -1.13,2.35 -1.42,2.21 -1.66,2.01 -1.91,1.81 -2.10,1.55 -2.29,1.30 -2.41,1.00 -2.53,0.71 -2.58,0.40 -2.63,0.08 -2.60,-0.22 -2.57,-0.54 -2.47,-0.84 -2.37,-1.14 -2.20,-1.41 -2.02,-1.68 -1.79,-1.89 -1.56,-2.11 -1.29,-2.27 -1.01,-2.43 -0.70,-2.51 -0.40,-2.60 -0.08,-2.61 0.23,-2.62 0.23,-2.62 L 0.23,-2.62 Z"></path></g><g stroke-linecap="round" transform="translate(659.80078125 261.1875) rotate(0 56.134765625 68.095703125)"><path d="M28.07 0 C45.12 -1.59, 61.21 0.95, 84.2 0 M28.07 0 C46.48 -0.36, 64.32 0.07, 84.2 0 M84.2 0 C103.86 1.98, 112.39 7.97, 112.27 28.07 M84.2 0 C101.66 0.1, 111.89 10.95, 112.27 28.07 M112.27 28.07 C111.52 49.64, 111.31 68.05, 112.27 108.12 M112.27 28.07 C112.25 46.61, 111.57 63.21, 112.27 108.12 M112.27 108.12 C112.51 126.2, 102.37 135.48, 84.2 136.19 M112.27 108.12 C111.79 125.85, 102.01 134.32, 84.2 136.19 M84.2 136.19 C65.07 133.89, 45.92 136.38, 28.07 136.19 M84.2 136.19 C64.22 135.27, 45.68 136, 28.07 136.19 M28.07 136.19 C8.31 135.19, 0.26 126.65, 0 108.12 M28.07 136.19 C11.02 134.18, 0.43 126.96, 0 108.12 M0 108.12 C0.73 76.5, 1.08 47.04, 0 28.07 M0 108.12 C0.26 80.3, 0.42 54.87, 0 28.07 M0 28.07 C-0.01 8.84, 7.43 -0.39, 28.07 0 M0 28.07 C0.39 10.38, 10.5 -0.6, 28.07 0" stroke="#1e1e1e" stroke-width="1" fill="none"></path></g><g transform="translate(564.09375 412.12109375) rotate(0 173.2398681640625 12.5)"><text x="0" y="17.52" font-family="Virgil, Segoe UI Emoji" font-size="20px" fill="#1e1e1e" text-anchor="start" style="white-space: pre;" direction="ltr" dominant-baseline="alphabetic">My Server (http://localhost:3000/)</text></g></svg>